<?xml version="1.0" standalone="no"?>
<!DOCTYPE svg PUBLIC "-//W3C//DTD SVG 20010904//EN"
 "http://www.w3.org/TR/2001/REC-SVG-20010904/DTD/svg10.dtd">
<svg version="1.0" xmlns="http://www.w3.org/2000/svg"
 width="32.000000pt" height="32.000000pt" viewBox="0 0 32.000000 32.000000"
 preserveAspectRatio="xMidYMid meet">

<g transform="translate(0.000000,32.000000) scale(0.100000,-0.100000)"
fill="#DCDCDC" stroke="none">
<path d="M226 285 c-22 -8 -52 -23 -67 -34 -30 -22 -59 -28 -59 -11 0 19 -29
10 -50 -17 -25 -32 -22 -45 11 -53 16 -4 24 -13 24 -28 1 -28 29 -56 57 -57
15 0 24 -8 28 -24 8 -33 21 -36 53 -11 27 21 36 50 17 50 -18 0 -11 27 19 77
17 26 33 65 37 86 7 43 -3 46 -70 22z m64 -8 c0 -8 -3 -17 -7 -20 -9 -9 -34
13 -27 24 8 14 34 11 34 -4z m-21 -67 c-12 -33 -73 -97 -102 -106 -27 -8 -72
36 -63 63 9 28 66 84 101 99 27 11 32 10 52 -8 18 -17 20 -25 12 -48z m-179
21 c0 -18 -37 -54 -44 -43 -4 6 2 20 14 32 22 22 30 25 30 11z m18 -36 c-11
-24 -28 -34 -28 -16 0 21 13 41 26 41 11 0 11 -5 2 -25z m96 -110 c-19 -13
-34 -11 -34 4 0 4 10 13 23 18 28 13 36 -3 11 -22z m30 -10 c-4 -9 -15 -20
-25 -25 -27 -15 -33 6 -7 24 28 20 39 20 32 1z"/>
<path d="M193 235 c-14 -11 -16 -18 -7 -31 15 -25 29 -27 47 -9 30 30 -5 65
-40 40z m36 -31 c-9 -11 -15 -12 -25 -3 -11 9 -12 15 -3 25 9 11 15 12 25 3
11 -9 12 -15 3 -25z"/>
<path d="M34 78 l-19 -23 23 19 c12 11 22 21 22 23 0 8 -8 2 -26 -19z"/>
<path d="M49 53 l-34 -38 38 34 c34 33 42 41 34 41 -2 0 -19 -17 -38 -37z"/>
<path d="M74 38 l-19 -23 23 19 c12 11 22 21 22 23 0 8 -8 2 -26 -19z"/>
</g>
</svg>
